{"title":"Alice In Chains - Dirt [24-bit 44.1kHz flac] MC Lurken","uid":11749946,"size":686592765,"categoryP":"audio","categoryS":"flac","magnet":"?xt=urn:btih:4a62bed4a875860583399051be48cf73bf1f8e64&amp;dn=Alice+In+Chains+-+Dirt+%5B24-bit+44.1kHz+flac%5D+MC+Lurken&amp;tr=udp%3A%2F%2Ftracker.openbittorrent.com%3A80&amp;tr=udp%3A%2F%2Fopen.demonii.com%3A1337&amp;tr=udp%3A%2F%2Ftracker.coppersurfer.tk%3A6969&amp;tr=udp%3A%2F%2Fexodus.desync.com%3A6969","seeders":3,"leechers":36,"uploader":"beavis39","files":17,"time":1426161380,"description":"Alice In Chains - Dirt [24-bit 44.1kHz flac] MC Lurken\n\n\n\n1 - Them Bones\n2 - Dam That River\n3 - Rain When I Die\n4 - Down in a Hole\n5 - Sickman\n6 - Rooster\n7 - Junkhead\n8 - Dirt\n9 - God Smack\n10 - Untitled (Iron Gland)\n11 - Hate to Feel\n12 - Angry Chair\n13 - Would?\n\n\n\nfoobar2000 1.3.7 / Dynamic Range Meter 1.1.1\nlog date: 2015-03-12 05:59:22\n\n--------------------------------------------------------------------------------\nAnalyzed: Alice In Chains / Dirt\n--------------------------------------------------------------------------------\n\nDR         Peak         RMS     Duration Track\n--------------------------------------------------------------------------------\nDR8       -0.01 dB    -8.86 dB      2:29 01-Them Bones\nDR8       -0.01 dB    -9.03 dB      3:09 02-Dam That River\nDR9       -0.01 dB   -10.58 dB      6:02 03-Rain When I Die\nDR8       -0.01 dB    -9.45 dB      5:38 04-Down in a Hole\nDR7       -0.01 dB    -9.03 dB      5:29 05-Sickman\nDR9       -0.01 dB   -11.74 dB      6:15 06-Rooster\nDR9       -0.01 dB   -10.54 dB      5:09 07-Junkhead\nDR8       -0.01 dB    -9.84 dB      5:17 08-Dirt\nDR8       -0.01 dB    -9.60 dB      3:51 09-God Smack\nDR9       -0.01 dB   -10.41 dB      0:44 10-Untitled (Iron Gland)\nDR7       -0.01 dB    -9.22 dB      5:16 11-Hate to Feel\nDR9       -0.01 dB    -9.70 dB      4:48 12-Angry Chair\nDR9       -0.01 dB   -10.06 dB      3:27 13-Would?\n--------------------------------------------------------------------------------\n\nNumber of tracks:  13\nOfficial DR value: DR8\n\nSamplerate:        44100 Hz\nChannels:          2\nBits per sample:   24\nBitrate:           1598 kbps\nCodec:             FLAC","torrent":{"xt":"urn:btih:4a62bed4a875860583399051be48cf73bf1f8e64","amp;dn":"Alice+In+Chains+-+Dirt+%5B24-bit+44.1kHz+flac%5D+MC+Lurken","amp;tr":["udp%3A%2F%2Ftracker.openbittorrent.com%3A80","udp%3A%2F%2Fopen.demonii.com%3A1337","udp%3A%2F%2Ftracker.coppersurfer.tk%3A6969","udp%3A%2F%2Fexodus.desync.com%3A6969"],"infoHash":"4a62bed4a875860583399051be48cf73bf1f8e64","infoHashBuffer":{"type":"Buffer","data":[74,98,190,212,168,117,134,5,131,57,144,81,190,72,207,115,191,31,142,100]},"announce":[],"urlList":[]}}